<?xml version="1.0" encoding="utf-8"?>
<!-- Generator: Adobe Illustrator 19.1.0, SVG Export Plug-In . SVG Version: 6.00 Build 0)  -->
<svg version="1.1" id="Layer_3" xmlns="http://www.w3.org/2000/svg" xmlns:xlink="http://www.w3.org/1999/xlink" x="0px" y="0px"
	 viewBox="0 0 320 340" enable-background="new 0 0 320 340" xml:space="preserve">
<g>
	<path fill="#31424C" d="M47.4,278.7l3.4,56.3h15.8l2.2-50.1C61.3,283.9,54.1,281.7,47.4,278.7z"/>
	<path fill="#31424C" d="M91.2,284.9l2.2,50.1h15.8l3.4-56.3C105.9,281.7,98.7,283.9,91.2,284.9z"/>
</g>
<path fill="#FCAF35" d="M111.7,122.3c1.3,13.8-1.6,29.7-6.9,43.5C93.2,196.2,80,197.6,80,197.6s-13.2-1.4-24.9-31.8
	c-5.3-13.8-8.1-29.7-6.9-43.5c-24.1,11.8-40.8,36.5-40.8,65.2C7.5,227.5,40,260,80,260c40,0,72.5-32.5,72.5-72.5
	C152.5,158.8,135.9,134.1,111.7,122.3z"/>
<g>
	<path fill="#6AD0DF" d="M182.4,58.6c3.6-0.7,15.1,4.9,25.8,12.5c8.7,6.2,14.4,11.4,16.3,13.1c-2.2,2.3-4,5.1-5.4,8.1
		c-2.5-0.1-14.7-0.8-23.1-7.2C188.1,79.2,177.7,59.6,182.4,58.6z"/>
	<path fill="#6AD0DF" d="M310.7,58.6c-3.6-0.7-15.1,4.9-25.8,12.5c-8.7,6.2-14.4,11.4-16.3,13.1c2.2,2.3,4,5.1,5.4,8.1
		c2.5-0.1,14.7-0.8,23.1-7.2C305,79.2,315.5,59.6,310.7,58.6z"/>
</g>
<g>
	<path fill="#31424C" d="M238.6,297.3c-12.5,12.5-16.5,30-17.1,33.4c3.9,0.8,7.2,2.3,10.1,4.3c1.3-4.3,5.5-16.8,13.6-28.8
		c8.7-12.9,33.3-25.1,33.3-25.1S257.6,278.3,238.6,297.3z"/>
	<path fill="#31424C" d="M268.3,233c2.9-2,6.2-3.5,10.1-4.3c-0.7-3.4-4.7-20.9-17.1-33.4c-19-19-39.8-16.2-39.8-16.2
		s24.6,12.2,33.2,25.1C262.8,216.2,267,228.7,268.3,233z"/>
</g>
<path fill="#FF5776" d="M80,7C49.2,7,48,45.1,58.8,73c10,26,21.2,29.8,21.2,29.8S91.2,99,101.2,73C112,45.1,110.8,7,80,7z"/>
<path fill="#FFFFFF" d="M87.7,75.7c-0.3,4.2-6,7.8-7.7,7.8s-7.4-3.5-7.7-7.8s4.1-4,7.7-4S88.1,71.5,87.7,75.7z"/>
</svg>
