<?xml version="1.0" encoding="utf-8"?>
<svg version="1.1" id="Layer_1" xmlns="http://www.w3.org/2000/svg" xmlns:xlink="http://www.w3.org/1999/xlink" x="0px" y="0px" viewBox="0 0 510 90" enable-background="new 0 0 510 90" xml:space="preserve">
<style>
	.blue { fill: #6ad0df; }
	.gold { fill: #fcaf35; }
	.pink { fill: #ff5776; }
</style>
<g>
	<path class="blue" d="M355.5,48.2c-1.4,2.3-3.5,3.8-6.6,3.8c-4.6,0-8.1-3.5-8.1-8.3c0-4.8,4.3-8.3,8.7-8.3c2.7,0,5.6,1.3,5.6,3.8c0,1.1-0.8,2.1-2.1,2.1c-1.3,0-2.1-0.8-2.1-1.8c0-1,0.6-1.6,1.7-1.6c0.2,0,0.5,0,0.7,0.1c-0.5-1-1.8-1.4-3.7-1.4c-3.3,0-5.3,2.3-5.3,6.8c0,4.2,1.5,7.5,5.1,7.5c2.4,0,3.9-1.3,5.1-3.1L355.5,48.2z"/>
	<path class="blue" d="M375.1,43.7c0,4.9-3.6,8.3-8.1,8.3s-8.1-3.4-8.1-8.3c0-4.9,3.6-8.3,8.1-8.3S375.1,38.8,375.1,43.7zM371.4,43.7c0-5.5-1.8-7.1-4.5-7.1c-2.7,0-4.5,1.6-4.5,7.1c0,5.5,1.8,7.1,4.5,7.1C369.6,50.8,371.4,49.2,371.4,43.7z"/>
	<path class="blue" d="M390.5,31.3c0-1.1-0.6-1.4-2.5-1.4v-1.1l5.7-0.2v20.7c0,1.1,0.6,1.4,2.3,1.4v0.9l-5.2,0.2v-3.2h-0.1c-0.9,2.1-2.6,3.4-5.2,3.4c-3.4,0-6.6-3.8-6.6-8.3s3.2-8.3,7.4-8.3c1.8,0,3.1,0.7,4.2,2.6h0.1V31.3zM390.6,43.6c0-4.6-1.5-7-4.1-7c-2.9,0-4.1,2.9-4.1,7c0,5,1.5,7.2,3.9,7.2C388.9,50.8,390.6,48.1,390.6,43.6z"/>
	<path class="blue" d="M402.1,43.6c0,4.6,2,7.2,4.9,7.2c2.2,0,3.8-1.4,5-3.1l0.8,0.5c-1.5,2.2-3.4,3.7-6.9,3.7c-4.2,0-7.4-3.8-7.4-8.3s3.2-8.3,7.4-8.3c3.9,0,7.1,2.7,7.1,8.2H402.1z M409.6,42.5c0-2.4-0.5-5.9-3.8-5.9c-3.2,0-3.7,3.5-3.7,5.9H409.6z"/>
	<path class="blue" d="M416.8,51.8V46h0.9c0.7,2.8,2.9,4.8,5.9,4.8c1.6,0,3.6-1,3.6-2.8c0-4.7-10.3-2-10.3-8c0-2.9,2.6-4.7,5.7-4.7c2.8,0,3.8,1.1,4.4,1.1c0.5,0,0.7-0.5,0.8-0.9h1.1v4.9h-1.1c-1-2.5-2.2-4-5.1-4c-1.5,0-3,0.6-3,2.3c0,4.1,10.3,1.5,10.3,7.7c0,3.6-2.9,5.4-6.2,5.4c-3,0-4-1.3-5-1.3c-0.6,0-0.8,0.7-0.9,1.1H416.8z"/>
	<path class="blue" d="M437.9,49.8c0,1.2-0.9,1.9-1.9,1.9c-1.1,0-1.9-0.7-1.9-1.9c0-1.2,0.9-1.9,1.9-1.9C437,47.9,437.9,48.6,437.9,49.8z"/>
	<path class="blue" d="M455.8,48.2c-1.4,2.3-3.5,3.8-6.6,3.8c-4.6,0-8.1-3.5-8.1-8.3c0-4.8,4.3-8.3,8.7-8.3c2.7,0,5.6,1.3,5.6,3.8c0,1.1-0.8,2.1-2.1,2.1c-1.3,0-2.1-0.8-2.1-1.8c0-1,0.6-1.6,1.7-1.6c0.2,0,0.5,0,0.7,0.1c-0.5-1-1.8-1.4-3.7-1.4c-3.3,0-5.3,2.3-5.3,6.8c0,4.2,1.5,7.5,5.1,7.5c2.4,0,3.9-1.3,5.1-3.1L455.8,48.2z"/>
	<path class="blue" d="M475.4,43.7c0,4.9-3.6,8.3-8.1,8.3s-8.1-3.4-8.1-8.3c0-4.9,3.6-8.3,8.1-8.3S475.4,38.8,475.4,43.7zM471.7,43.7c0-5.5-1.8-7.1-4.5-7.1c-2.7,0-4.5,1.6-4.5,7.1c0,5.5,1.8,7.1,4.5,7.1C469.9,50.8,471.7,49.2,471.7,43.7z"/>
	<path class="blue" d="M499.4,51.6V40.4c0-2.3-0.7-3.6-2.8-3.6c-1.6,0-3.5,1.2-3.5,5.5V49c0,1.1,0.6,1.4,2.4,1.4v1.1H490V40.4c0-2.3-0.7-3.6-2.8-3.6c-1.6,0-3.5,1.2-3.5,5.5V49c0,1.1,0.6,1.4,2.6,1.4v1.1H478v-1.1c1.9,0,2.5-0.3,2.5-1.4V38.4c0-1.1-0.6-1.4-2.5-1.4v-1.1l5.4-0.2v3h0.1c0.7-1.9,2.2-3.2,4.3-3.2c2.5,0,4.1,1.1,4.9,3.6c1.1-2.5,2.8-3.6,4.9-3.6c2.1,0,4.9,0.9,4.9,5.2V49c0,1.1,0.6,1.4,2.4,1.4v1.1H499.4z"/>
</g>
<g>
	<path class="gold" d="M185.5,48.2c-1.4,2.3-3.5,3.8-6.6,3.8c-4.6,0-8.1-3.5-8.1-8.3c0-4.8,4.3-8.3,8.7-8.3c2.7,0,5.6,1.3,5.6,3.8c0,1.1-0.8,2.1-2.1,2.1c-1.3,0-2.1-0.8-2.1-1.8c0-1,0.6-1.6,1.7-1.6c0.2,0,0.5,0,0.7,0.1c-0.5-1-1.8-1.4-3.7-1.4c-3.3,0-5.3,2.3-5.3,6.8c0,4.2,1.5,7.5,5.1,7.5c2.4,0,3.9-1.3,5.1-3.1L185.5,48.2z"/>
	<path class="gold" d="M205.1,43.7c0,4.9-3.6,8.3-8.1,8.3c-4.5,0-8.1-3.4-8.1-8.3c0-4.9,3.6-8.3,8.1-8.3C201.4,35.4,205.1,38.8,205.1,43.7z M201.4,43.7c0-5.5-1.8-7.1-4.5-7.1c-2.7,0-4.5,1.6-4.5,7.1c0,5.5,1.8,7.1,4.5,7.1C199.6,50.8,201.4,49.2,201.4,43.7z"/>
	<path class="gold" d="M220.5,31.3c0-1.1-0.6-1.4-2.5-1.4v-1.1l5.7-0.2v20.7c0,1.1,0.6,1.4,2.3,1.4v0.9l-5.2,0.2v-3.2h-0.1c-0.9,2.1-2.6,3.4-5.2,3.4c-3.4,0-6.6-3.8-6.6-8.3s3.2-8.3,7.4-8.3c1.8,0,3.1,0.7,4.2,2.6h0.1V31.3zM220.6,43.6c0-4.6-1.5-7-4.1-7c-2.9,0-4.1,2.9-4.1,7c0,5,1.5,7.2,3.9,7.2C218.9,50.8,220.6,48.1,220.6,43.6z"/>
	<path class="gold" d="M232.1,43.6c0,4.6,2,7.2,4.9,7.2c2.2,0,3.8-1.4,5-3.1l0.8,0.5c-1.5,2.2-3.4,3.7-6.9,3.7c-4.2,0-7.4-3.8-7.4-8.3s3.2-8.3,7.4-8.3c3.9,0,7.1,2.7,7.1,8.2H232.1z M239.6,42.5c0-2.4-0.5-5.9-3.8-5.9c-3.2,0-3.7,3.5-3.7,5.9H239.6z"/>
	<path class="gold" d="M246.8,51.8V46h0.9c0.7,2.8,2.9,4.8,5.9,4.8c1.6,0,3.6-1,3.6-2.8c0-4.7-10.3-2-10.3-8c0-2.9,2.6-4.7,5.7-4.7c2.8,0,3.8,1.1,4.4,1.1c0.5,0,0.7-0.5,0.8-0.9h1.1v4.9h-1.1c-1-2.5-2.2-4-5.1-4c-1.5,0-3,0.6-3,2.3c0,4.1,10.3,1.5,10.3,7.7c0,3.6-2.9,5.4-6.2,5.4c-3,0-4-1.3-5-1.3c-0.6,0-0.8,0.7-0.9,1.1H246.8z"/>
	<path class="gold" d="M267.9,49.8c0,1.2-0.9,1.9-1.9,1.9c-1.1,0-1.9-0.7-1.9-1.9c0-1.2,0.9-1.9,1.9-1.9C267,47.9,267.9,48.6,267.9,49.8z"/>
	<path class="gold" d="M285.8,48.2c-1.4,2.3-3.5,3.8-6.6,3.8c-4.6,0-8.1-3.5-8.1-8.3c0-4.8,4.3-8.3,8.7-8.3c2.7,0,5.6,1.3,5.6,3.8c0,1.1-0.8,2.1-2.1,2.1c-1.3,0-2.1-0.8-2.1-1.8c0-1,0.6-1.6,1.7-1.6c0.2,0,0.5,0,0.7,0.1c-0.5-1-1.8-1.4-3.7-1.4c-3.3,0-5.3,2.3-5.3,6.8c0,4.2,1.5,7.5,5.1,7.5c2.4,0,3.9-1.3,5.1-3.1L285.8,48.2z"/>
	<path class="gold" d="M305.4,43.7c0,4.9-3.6,8.3-8.1,8.3s-8.1-3.4-8.1-8.3c0-4.9,3.6-8.3,8.1-8.3S305.4,38.8,305.4,43.7zM301.7,43.7c0-5.5-1.8-7.1-4.5-7.1c-2.7,0-4.5,1.6-4.5,7.1c0,5.5,1.8,7.1,4.5,7.1C299.9,50.8,301.7,49.2,301.7,43.7z"/>
	<path class="gold" d="M329.4,51.6V40.4c0-2.3-0.7-3.6-2.8-3.6c-1.6,0-3.5,1.2-3.5,5.5V49c0,1.1,0.6,1.4,2.4,1.4v1.1H320V40.4c0-2.3-0.7-3.6-2.8-3.6c-1.6,0-3.5,1.2-3.5,5.5V49c0,1.1,0.6,1.4,2.6,1.4v1.1H308v-1.1c1.9,0,2.5-0.3,2.5-1.4V38.4c0-1.1-0.6-1.4-2.5-1.4v-1.1l5.4-0.2v3h0.1c0.7-1.9,2.2-3.2,4.3-3.2c2.5,0,4.1,1.1,4.9,3.6c1.1-2.5,2.8-3.6,4.9-3.6c2.1,0,4.9,0.9,4.9,5.2V49c0,1.1,0.6,1.4,2.4,1.4v1.1H329.4z"/>
</g>
<g>
	<path class="pink" d="M15.5,48.2c-1.4,2.3-3.5,3.8-6.6,3.8c-4.6,0-8.1-3.5-8.1-8.3c0-4.8,4.3-8.3,8.7-8.3c2.7,0,5.6,1.3,5.6,3.8c0,1.1-0.8,2.1-2.1,2.1c-1.3,0-2.1-0.8-2.1-1.8c0-1,0.6-1.6,1.7-1.6c0.2,0,0.5,0,0.7,0.1c-0.5-1-1.8-1.4-3.7-1.4c-3.3,0-5.3,2.3-5.3,6.8c0,4.2,1.5,7.5,5.1,7.5c2.4,0,3.9-1.3,5.1-3.1L15.5,48.2z"/>
	<path class="pink" d="M35.1,43.7c0,4.9-3.6,8.3-8.1,8.3s-8.1-3.4-8.1-8.3c0-4.9,3.6-8.3,8.1-8.3S35.1,38.8,35.1,43.7zM31.4,43.7c0-5.5-1.8-7.1-4.5-7.1c-2.7,0-4.5,1.6-4.5,7.1c0,5.5,1.8,7.1,4.5,7.1C29.6,50.8,31.4,49.2,31.4,43.7z"/>
	<path class="pink" d="M50.5,31.3c0-1.1-0.6-1.4-2.5-1.4v-1.1l5.7-0.2v20.7c0,1.1,0.6,1.4,2.3,1.4v0.9l-5.2,0.2v-3.2h-0.1C49.7,50.7,48,52,45.5,52c-3.4,0-6.6-3.8-6.6-8.3s3.2-8.3,7.4-8.3c1.8,0,3.1,0.7,4.2,2.6h0.1V31.3z M50.6,43.6c0-4.6-1.5-7-4.1-7c-2.9,0-4.1,2.9-4.1,7c0,5,1.5,7.2,3.9,7.2C48.9,50.8,50.6,48.1,50.6,43.6z"/>
	<path class="pink" d="M62.1,43.6c0,4.6,2,7.2,4.9,7.2c2.2,0,3.8-1.4,5-3.1l0.8,0.5c-1.5,2.2-3.4,3.7-6.9,3.7c-4.2,0-7.4-3.8-7.4-8.3s3.2-8.3,7.4-8.3c3.9,0,7.1,2.7,7.1,8.2H62.1z M69.6,42.5c0-2.4-0.5-5.9-3.8-5.9c-3.2,0-3.7,3.5-3.7,5.9H69.6z"/>
	<path class="pink" d="M76.8,51.8V46h0.9c0.7,2.8,2.9,4.8,5.9,4.8c1.6,0,3.6-1,3.6-2.8c0-4.7-10.3-2-10.3-8c0-2.9,2.6-4.7,5.7-4.7c2.8,0,3.8,1.1,4.4,1.1c0.5,0,0.7-0.5,0.8-0.9h1.1v4.9h-1.1c-1-2.5-2.2-4-5.1-4c-1.5,0-3,0.6-3,2.3c0,4.1,10.3,1.5,10.3,7.7c0,3.6-2.9,5.4-6.2,5.4c-3,0-4-1.3-5-1.3c-0.6,0-0.8,0.7-0.9,1.1H76.8z"/>
	<path class="pink" d="M97.9,49.8c0,1.2-0.9,1.9-1.9,1.9c-1.1,0-1.9-0.7-1.9-1.9c0-1.2,0.9-1.9,1.9-1.9C97,47.9,97.9,48.6,97.9,49.8z"/>
	<path class="pink" d="M115.8,48.2c-1.4,2.3-3.5,3.8-6.6,3.8c-4.6,0-8.1-3.5-8.1-8.3c0-4.8,4.3-8.3,8.7-8.3c2.7,0,5.6,1.3,5.6,3.8c0,1.1-0.8,2.1-2.1,2.1c-1.3,0-2.1-0.8-2.1-1.8c0-1,0.6-1.6,1.7-1.6c0.2,0,0.5,0,0.7,0.1c-0.5-1-1.8-1.4-3.7-1.4c-3.3,0-5.3,2.3-5.3,6.8c0,4.2,1.5,7.5,5.1,7.5c2.4,0,3.9-1.3,5.1-3.1L115.8,48.2z"/>
	<path class="pink" d="M135.4,43.7c0,4.9-3.6,8.3-8.1,8.3c-4.5,0-8.1-3.4-8.1-8.3c0-4.9,3.6-8.3,8.1-8.3C131.7,35.4,135.4,38.8,135.4,43.7z M131.7,43.7c0-5.5-1.8-7.1-4.5-7.1c-2.7,0-4.5,1.6-4.5,7.1c0,5.5,1.8,7.1,4.5,7.1C129.9,50.8,131.7,49.2,131.7,43.7z"/>
	<path class="pink" d="M159.4,51.6V40.4c0-2.3-0.7-3.6-2.8-3.6c-1.6,0-3.5,1.2-3.5,5.5V49c0,1.1,0.6,1.4,2.4,1.4v1.1H150V40.4c0-2.3-0.7-3.6-2.8-3.6c-1.6,0-3.5,1.2-3.5,5.5V49c0,1.1,0.6,1.4,2.6,1.4v1.1H138v-1.1c1.9,0,2.5-0.3,2.5-1.4V38.4c0-1.1-0.6-1.4-2.5-1.4v-1.1l5.4-0.2v3h0.1c0.7-1.9,2.2-3.2,4.3-3.2c2.5,0,4.1,1.1,4.9,3.6c1.1-2.5,2.8-3.6,4.9-3.6c2.1,0,4.9,0.9,4.9,5.2V49c0,1.1,0.6,1.4,2.4,1.4v1.1H159.4z"/>
</g>
</svg>
