<?xml version="1.0" encoding="utf-8"?>
<svg version="1.1" xmlns="http://www.w3.org/2000/svg" xmlns:xlink="http://www.w3.org/1999/xlink" x="0px" y="0px" viewBox="0 0 200 90" enable-background="new 0 0 200 90" xml:space="preserve">
<style>
	.slate { fill: #31424C; }
</style>
<g>
	<path class="slate" d="M43.8,39.7c-0.1,0.3-0.4,1.2-1.1,1.9c-1,0.9,0,0.3-1.2,1.1c-0.1,0.1-0.6,0.7-0.7,0.9c-0.7,1.2-1.2,0.8-2.2,1.9c-0.5,0.4-1.1,0.9-1.4,1.5c-0.1,0.2-0.4,0.2-0.6,0.4c-0.2,0.2-0.4,0.6-0.7,0.8c-1,0.8-1.2,0.8-2.2,1.7c-1.1,1.1-1.2,1.2-2.7,1.9c-1.3,0.6-2.2,1.2-3.3,1.7c-0.2,0.1-0.6,0.1-0.7,0.4c-0.3,0.1-0.1-0.2-0.2-0.2c0,0.2-0.4,0.8-0.5,0.7c0-0.2,0.2-0.3,0.1-0.5c-0.4,0.1-0.8,0.4-1.1,0.5c0.1,0.2,0.2-0.1,0.4-0.1c-0.1,0.3-0.3,0.4-0.5,0.4c0-0.1,0.1-0.1,0.1-0.3c-0.8,0.5-1.7,0.5-2.5,0.9c-0.2,0.1-0.6,0.1-0.6,0.1c-0.4-0.2-0.2,0.2-0.5,0.2c-0.6-0.1-1.2,0.1-1.8,0.1c-0.6,0.1-1.4-0.1-2-0.1c-1.4-0.2-2.7-0.4-3.8-0.9c-0.7-0.3-1.1-0.6-1.8-0.9c-0.2-0.2-0.5-0.4-0.8-0.5c-0.4-0.1-0.8-0.2-1-0.4c-0.1-0.1-0.1-0.3-0.2-0.5c-0.1-0.2-0.5-0.2-0.7-0.5c-0.1-0.2-0.2-0.5-0.4-0.8c-0.2-0.4-0.4-0.6-0.6-0.9c-0.8-0.9-1.4-2-1.7-3.2C6.4,46.6,6.3,46,6,45.4C6,45.2,5.8,45,5.9,44.7c0-0.2,0-0.5-0.2-0.7c-0.4-0.4-0.2-1.1-0.3-1.5c-0.1-0.6-0.1-1.4-0.1-2.1c0-0.5,0.1-1,0-1.4c0-0.1-0.1-0.3-0.2-0.5C5.2,38.3,5,38,5,37.8c0.1-0.2,0.4-0.1,0.4-0.2c0.3,0,0.2,0.4,0.3,0.5c0.1-0.5,0.2-0.8,0.3-1.3c-0.1-0.2-0.2,0.1-0.3,0c0-0.6,0.1-1.3-0.1-1.7c0.2-0.2,0.4-0.3,0.7-0.4c0.1-0.1,0,0,0.1,0c0.3-0.3,0.3-0.6,0.3-1.1c0-0.4-0.4-0.9-0.3-1.2c0.1-0.2,0.4-0.6,0.6-0.6c0.4,0.2,0.5,0.4,0.5,0.8c0.4-0.3,0.2-0.9,0.6-1.2c0,0.4-0.2,0.5-0.3,0.8c0.2,0,0-0.3,0.3-0.1c-0.2,0.4-0.3,1-0.5,1.4c-0.1-0.3,0.2-0.7,0.2-1.2c-0.2,0.2-0.3,0.4-0.3,0.7c-0.1,0.1-0.1,0.2-0.4,0.1c0,0.4-0.4,0.8-0.5,1.1c-0.1,0.4,0.1,0.6,0.1,1.1c-0.1,0.4-0.4,1.2-0.1,1.5c0.3,0.1-0.2,0.6,0,0.8C7,37.4,7.1,37.1,7,36.6c0-0.1-0.2-0.7,0.1-0.9c0.2,0.3,0.1,0.8,0.1,0.9c0.6,0,0.5-0.5,0.6-0.9c0-0.3,0.2-0.5,0.4-0.8c0.2-0.2,0.2-0.7,0.2-1.1c0.4-0.1,0.4-0.8,0.6-1.1c0.2-0.4,0.2-0.8,0.4-1.1c0.5-0.8,1.2-1.7,1.4-2.7c-0.4-0.1-0.5,0.8-0.6,1.1c-0.2-0.4,0.1-0.8,0.1-1.2c-0.2-0.1-0.5,0-0.5,0.4c-0.2-0.1,0.4-0.6-0.1-0.7c0.2-0.2,0.3-0.6,0.6-0.6c0,0.2-0.1,0.2-0.1,0.5c0.2-0.3,0.3-0.6,0.7-0.7c0.2,0.5-0.4,0.4-0.4,0.8c0.3,0.1,0.1-0.3,0.4-0.2c0,0-0.1,0.2,0,0.2c0.5-0.1,0-0.6,0.4-0.7c0.5-0.4,0.7-0.9,0.9-1.4c0.7-1.3,1.3-2.6,2.1-3.9c-0.6,0.5-0.9,1.3-1.2,1.9c-0.1-0.2,0-0.4,0.1-0.5c-0.1-0.2-0.2,0.1-0.4,0.1c0.2-0.4,0.5-0.8,0.5-1.2c0.3,0,0.5-0.2,0.7-0.5c0.1-0.1,0.2-0.6,0.3-0.6c0.3-0.1,0.4-0.4,0.4-0.5c0.2-0.4,0.4-0.1,0.5,0.1c0.3-0.2,0-0.6,0.1-0.9c0.1-0.1,0.2,0.2,0.2,0.2c0.2-0.1,0.4-0.5,0.5-0.6c0.2-0.5,0.5-0.7,0.9-1c0.4-0.2,0.6-0.8,1-1.2c0.2-0.2,0.3-0.9,0.8-0.9c-0.4,0-0.6,0.4-0.9,0.5c-0.4,0.3-0.7,0.6-1,1.1c0-0.4,0.4-0.7,0.6-0.9c0.1-0.2,0.1-0.4,0.2-0.5c0.3-0.2,0.5-0.3,0.6-0.5c0.6-0.7,1.1-1.5,1.9-2.1c0.4-0.3,0.5-0.8,0.9-1c0.8-0.8,1.9-1.4,2.9-1.9c0.1,0,0.6-0.2,0.5-0.3c-0.1-0.1-0.2,0.1-0.1-0.1c0.4-0.4,0.8-0.5,1.4-0.6c0.5-0.2,0.8-0.6,1.4-0.7c1.1-0.4,2-0.8,3.2-1.1c1.5-0.3,4.2-0.2,6.1,0.7c1.8,1.2,2.6,2,3.6,3.6c1.1,1.8,1.4,3.8,1.3,6c-0.1,2.1-0.6,4-1.4,6c-0.2,0.7-0.6,1.4-1.4,0.9c-0.5-0.2-2.1-0.9-1.7-1.7c0.6-0.8,0.7-2,0.7-2.9c0-1.1-0.1-2.3-0.3-3.5c-0.1-0.5-0.4-1.1-0.4-1.4c-0.1-0.4-0.1-0.6-0.2-0.9c-0.2-0.4-0.5-0.5-0.7-0.9c-0.1-0.2-0.4-0.9-0.6-1c-0.4-0.2-0.6-0.5-0.6-0.9c0-0.3-0.4-0.5-0.6-0.5c-0.6-0.5-2.3,0.1-3,0.4c-1.4,0.7-3.2,1.8-4.8,3.3c-1.6,1.6-3.3,3.2-4.6,5.1c-0.4,0.9-1.5,2.4-1.8,3.8c-0.1,0.5-0.6,0.8-0.8,1.3c-0.4,1.1-0.9,1.9-1.4,2.9c-0.2,0.6-0.2,1-0.3,1.4c0,0.6-0.4,1-0.4,1.6c-0.2,0.8-0.8,1.8-1.1,2.6c-0.2,0.5-0.1,0.8-0.1,1.4c0,0.6-0.4,1.4-0.6,1.8c-0.1,0.4-0.4,0.8-0.2,1.4c0.1,0.4,0.2,0.7,0.1,1.2c-0.2,1.2-0.3,2.6-0.2,3.7c0,1.9,0.4,3.8,2.2,4.7c1.9,1.1,4.2,1.5,6.3,1.4c1.3-0.1,2.6-0.3,3.8-0.7c0.2-0.1,0.4-0.3,0.6-0.3c0.4-0.1,0.6,0.1,0.9,0c0.5-0.1,0.3,0,0.8-0.1c1.1-0.6,1.2-0.4,2.4-1c1-0.7,0.8-0.5,1.9-1.1c0.2-0.1,0.5-0.1,0.6-0.4c0.2-0.2,0.3-0.5,0.5-0.6c0.5-0.3,1-0.5,1.5-0.8c0.5-0.4,0.8-0.5,1.2-1c0.9-0.8,1.3-0.6,2.4-1.7c0.6-0.4,1.1-1,1.5-1.4c0.6-0.5,1.1-0.8,1.6-1.4c0.5-0.5,1.6-1,1.8-1.4C44.8,37.9,44.1,38.9,43.8,39.7z M6,42c0-0.2,0.1-0.3,0.1-0.6c-0.2-0.1-0.2-0.1-0.4-0.1c0,0-0.2,0.4,0.1,0.4C5.8,41.3,5.8,42,6,42z M6,36c0,0.2-0.1,0.2-0.1,0.5C6.2,36.5,6.2,36,6,36z M6,39c0,0.2-0.1,0.6,0.2,0.6C6.1,39.4,6.2,39.1,6,39z M6.4,40.4c0,0.1-0.2,0-0.2,0.2c0,0.4,0,1,0.4,1.2c0-0.8,0.4-1.5,0.1-2.5c-0.1,0-0.1,0-0.1,0c-0.1,0.2-0.4,0.2-0.4,0.5C6.2,40.1,6.4,40.3,6.4,40.4z M6.4,34c-0.2-0.1,0.1-0.3,0.1-0.4C6.7,33.7,6.4,33.9,6.4,34z M7.7,34.3c0.1,0-0.2,0.6-0.2,0.9C7.5,35,7.7,34.6,7.7,34.3z M9,32.7c-0.1-0.1-0.1-0.4,0.2-0.4C9.2,32.4,9.1,32.6,9,32.7z M9.8,29.6c-0.1,0.2-0.2,0.4-0.4,0.5c0.1-0.2,0.1-0.4,0.1-0.6C9.8,29.4,9.7,29.6,9.8,29.6z M11.1,26.8c0.2-0.6,0.5-1,0.9-1.4C11.7,25.8,11.6,26.5,11.1,26.8z M12.4,24.8c-0.2-0.1,0.1-0.1,0.1-0.3C12.7,24.5,12.4,24.8,12.4,24.8zM14,21.7c0.1-0.2,0.4-0.4,0.5-0.6c0.2-0.5,0.4-0.7,0.8-0.9c-0.1,0.3-0.4,0.6-0.6,0.9c-0.2,0.4-0.2,0.8-0.7,0.9C14.1,22,13.9,21.9,14,21.7z"/>
	<path class="slate" d="M74.1,39c0.1,0.7-1.1,2.2-1.4,2.7c-0.5,0.9-1.9,2.5-2.9,3.2c-0.2,0.2-0.5,0.7-0.7,0.8c-0.4,0.2-0.6,0.5-0.9,0.7c-0.3,0.2-0.4,0.3-0.7,0.6c-0.1,0.1-0.4,0-0.6,0.1c-0.1,0.1-0.1,0.3-0.1,0.4c-2.2,1.8-4.7,1.9-6,2.1c-5.6,0-7.9-1.4-8.1-6.8c-0.4-0.4-0.6,0.2-0.9,0.5c-0.6,0.9-2.3,3.2-3.7,3.4c-1,0.1-2.5-0.4-3.5-0.8c-1.1-0.5-1.4-1.2-1.9-2.3c0.3-0.4,0-1.4,0.5-1.5c0.1-0.5-0.2-0.5-0.2-0.9c1.2-1.9,2.1-4,3.5-5.4c0,0,3-2.6,3.5-2.4c0.7-0.1,1.1-0.7,1.8-1.1c0.5-0.3,1.3-0.5,1.8-0.9c1.2,0.1,1.7,0.9,2.8,1.2c0.6-0.5,0.6-1.5,1.3-2.1c2.2-0.4,4,0.5,4.8,1.8c0.3,2.4-1.3,4.5-2.3,6.9c-0.2,0.4-0.4,1-0.5,1.5c-0.4,1.1-0.8,2.6-0.8,4.1c0,0.9,0.2,1.9,0.7,2.5c2.1,0.8,3.2-0.2,4.9-1.1c1.4-0.9,1.4-0.9,2.3-1.7c0.2-0.1,0.2-0.4,0.4-0.6c0.2-0.1,0.3-0.2,0.5-0.2c1.2-1.1,4.2-3.7,5.5-4.8c0.5-0.5,1.1-0.6,1.4-0.2V39z M54,35.1c-2.5,1.7-4.1,4.1-5.8,6.7c1.8-0.6,3.1-2.4,4.1-3.6c0.7-0.8,1.6-1.7,1.9-2.8C54.4,35.4,54.4,35.1,54,35.1z"/>
	<path class="slate" d="M82.8,34.7c0.4,0.2,0.7,0.4,1,0.7c0.2,0,0.5,0.1,0.6,0.2c0.1,0,0.2,0.2,0.2,0.2c0.5,0.2,0.5,0.5,0.8,1c0.2,0.2,0.4,0.3,0.6,0.4c-0.2,0.8,0.4,1,0.7,1.2c-0.4,0.5-0.6,1.2-1.1,1.6c-0.2,0.9-0.6,2.1-0.9,3c0,0.1-0.3,0.3-0.4,0.4C84.1,44.2,84,45,83.8,46c-0.4,1.5-0.9,3.6-0.6,5.6c0.1,0.7,0.3,1.6,0.6,2.1l0.1,0.2c0.3,0.2,0.6,0.2,0.8,0.3c0.3,0.3-0.1,0.3,0.2,0.6c0.9,0.1,1.6-0.2,2.4-0.3c-0.5,0.6-1.4,1-2.1,1.1c-2.2,0.4-4.4-0.5-5.2-1.9c-0.2-0.2-0.5-1.3-0.6-1.6c-0.1-0.4-0.3-0.7-0.4-1.1c-0.3-0.9-0.4-2.1-0.4-3.3c0-3.8,1.1-8.3,2.2-10.6c-0.2-0.6-0.8-0.6-1.3-1c-0.6,0.1-0.6-0.7-1.1-0.4c-0.9,1.2-0.5,0.8-1.4,1.9c-0.2,0.2-1.2,0.9-1.3,1c-0.3,0.9-0.8,0.9-1.4,1.5c-0.7,0.8-1.4,1.3-2.2,1.9c-1.5,0.1-2.3-0.1-2.3-0.5c1-0.9,2.1-2,2.5-2.5c0.9-1,0.9-1,1.5-1.7c0.5-0.5,0.6-0.5,1.4-1.5c0.6-0.8,0.5-0.8,0.9-1.5c-0.2-0.2-0.5-0.5-0.8-0.7c-0.4-0.6-0.1,0.1-0.4-0.9c0-0.1-0.4-0.4-0.4-0.5c-0.2-1.1,0.4-3.2,0.6-4c0.1-0.5,0.4-1.1,0.6-1.7c0.1-0.1,0.4-0.1,0.4-0.1c0.1-0.1,0-0.3,0-0.4c0.1-0.1,0.4,0,0.4,0c0.1-0.2-0.1-0.3,0-0.3c0.1-0.1,0.3-0.2,0.3-0.2c0.1-0.4,0.6-0.9,1.1-1.4c0.4-0.4,1.6-1.7,2.1-2.1c0.2-0.1,0.5-0.1,0.7-0.4c0.1,0,0.2-0.1,0.3,0.1c0.7,0.7,1.7,1.1,2.2,1.8c0,0.2,0.1,0.4,0.1,0.4c0.2,2.7-0.4,4.4-1.1,6.4c-0.4,1.2-1.2,2.3-1.8,3.5C81.2,34.6,82.2,34.4,82.8,34.7z M78.6,31.8c0.6-1.5,1.4-2.7,1.9-3.8c0.2-0.2,0.4-0.6,0.2-0.9c-0.1,0.2-0.4,0.2-0.5,0.3C80,28.9,78.2,29.8,78.6,31.8z"/>
	<path class="slate" d="M140.3,40.3c-0.4,0.5-0.3,0.6-0.8,0.9l-0.6,0.5c-0.2,0.2-0.5,0.4-0.8,0.5c-0.7,0.8-0.6,0.4-1.3,1.1c-0.1,0.2-0.9,0.7-1.1,0.9c-0.6,0.6-0.6,0.6-1.5,1.2c-0.4,0.6-0.6,0.6-1.2,1c0.1,0.4-0.3,0.5-0.4,0.7c-0.1,0.1,0,0.2,0,0.3c-0.1,0.1-0.3,0.1-0.3,0.2c-0.1,0.1,0.1,0.2,0,0.2c-0.1,0.1-0.3,0.2-0.3,0.2c-0.6,1.1-1.3,1.5-2.1,2.5c-0.4,0.5-0.7,1-1.2,1.4c-1.9,1.9-4.4,3.6-7,3.8c-1.3,0.1-2.8-0.1-3.7-0.5c-0.1,0-0.2-0.2-0.2-0.2c-0.4-0.2-1.2-0.4-1.6-0.7l-0.2-0.2c-0.8-0.5-1.5-2.2-2.1-3.2c-0.2-0.3-0.3-0.5-0.4-0.8c-0.3-0.3-0.5-0.5-0.6-0.7c-0.2-0.4-0.4-1.1-0.6-1.7c-0.5-1.7-0.5-4-0.9-6.1c-0.3-0.7-0.1-0.9-0.1-2.4c0-0.4,0.1-0.7,0.1-1.1l-1.5,0.4c-1.3,0.3-2.5,0.5-4.1,0.5c-0.8,0-1.8-0.1-2.7-0.3c-0.5,0.4-0.4,1.5-0.7,2.1c-0.2,0.2-0.6,0.4-0.9,0.6c0,0.2,0,0.5-0.1,0.6c-0.2,0.4-0.5,0.8-0.7,1.1c-0.1,0.2-0.1,0.4-0.5,0.5c-0.2,0.2-0.6,0.4-0.7,0.6c-0.1,0.2-0.1,0.5-0.3,0.6c-0.2,0.1-0.8,0.4-1.2,0.5c-0.4,0.4-0.5,0.9-0.7,1.1c-0.2,0-0.5,0-0.9,0.1c0,0,0,0.4-0.2,0.4c-0.4,0.1-0.9,0.1-1.3,0.4c-0.9,0-1.4-0.2-2-0.6c-0.9-0.1-1.8-0.2-2.4-0.7c-1.1-0.8-1.8-2.1-1.9-3.5c-0.4-2.2,0.8-4.6,1.5-6.5c0-0.2,0-0.5,0.2-0.8c0.2-0.1,0.5-0.2,0.6-0.6c0.2-0.2,0.2-0.4,0.2-0.6c0.2-0.4,0.8-0.7,0.9-1c0.5-0.6,0.5-1.4,1.3-1.8c0.1,0,1.4-0.1,1.4-0.1c0.3,0,0.7,0.4,1,0.4c0.4,0.1,0.6,0,0.8,0c0.3,0,0.3,0.1,0.4,0.1h0.9c0.5,0.1,0.8,0.2,0.8,0.4c0.2,0,0.2,0.4,0.4,0.5c0.4,0.5,0.9,0.8,1,1.6c1.2,0,2,0.7,2.5,1.3c0.2,0.1,0.4,0.4,0.4,0.4c0.2,0.4,0.2,0.7,0.5,0.8c0.1,0.2,0.8,0.3,1.7,0.3c2.2,0,5-1.2,6.9-2.5c0.1,0,0.2,0,0.2-0.1c0.4-1.8,0.8-3.4,1.5-5.2c0.5-1.5,1.5-3,2.1-4.7c0.6-1.4,0.9-2.8,1.8-4.1c0.2-0.2,0.4-0.2,0.5-0.4c0.2-0.3,0.2-0.5,0.4-0.8l0.9-1.3c0.1-0.2,0.2-0.5,0.5-0.7c0.3-0.5,0.7-0.8,1-1.2c0.2-0.2,0.2-0.6,0.4-0.9c0.2-0.1,0.4-0.4,0.4-0.5c0.2-0.2,0.1-0.5,0.3-0.5L123,13c0.3-0.5,0.4-1.2,1.1-1.2c1.6-2.5,4.1-4.1,5.7-6.3c1,0,1.3-0.6,1.8-1.1c1.2-0.2,1.8,0.4,2.5,0.6c0.4,0.4,1.3,0.3,1.6,0.9c0,1.1,0,2.5-0.2,3.4c-0.1,0.2,0.2,0.3,0.2,0.3c-0.1,0.6-0.4,1.1-0.5,1.5c-0.1,0.4-0.1,1-0.2,1.3c-0.2,0.1-0.4,1.5-0.6,2.2c-1.4,3.5-4.2,6.6-6.6,9.5c-0.5,0.6-0.8,1.1-1.3,1.7c0,0-0.3,0.1-0.3,0.1c-0.4,0.8-1.4,1.7-2.2,2.5l-0.2,0.1c-0.1,0.2-0.1,0.6-0.1,0.7c-0.2,0.2-0.5,0.3-0.5,0.4c-0.3,0.2-0.3,0.4-0.5,0.7c-0.3,0.2-0.5,0.9-0.9,1.4c-0.5,0.6-1.1,1.4-1.6,2.3l-0.4,1.5c-0.1,0.4-0.4,0.7-0.5,1c-0.3,1.2-0.4,2.5-0.7,4c-0.1,1.1-0.8,2.5-0.8,3.8c-0.1,1.1,0.1,1.1,0.2,2c-0.1,0-0.1,0,0,0.2c0.1,0,0.2-0.1,0.3-0.1c-0.1,1.5,0.2,2.8,0.7,3.8c0.1,0.1,0.4,0.2,0.4,0.4l0.2,0.5c0.4,0.7,0.7,1.4,1.4,1.8c0.3-0.2,0.6-0.3,0.9-0.4l1.4-1.1l1.4-1.2l2-1.9c1.7-1.7,3.7-2.5,5.5-4.1c1-0.8,1.2-0.9,2.3-1.7l1.4-0.8c0.2-0.1,0.2-0.2,0.4-0.3c0.8-0.6,0.8-0.4,1.8-1.1c0.1-0.1,0.2-0.1,0.4-0.2l0.9-0.5c0.8-0.4,0.8-0.6,1.5-0.8C140.7,39.2,140.7,39.6,140.3,40.3z M98.8,42c0.5-0.6,0.9-1.3,1.1-2.2c0.1-1.9-0.9-4.5-2.4-4.2c-0.6,0.5-0.8,1.1-1.2,1.8c-0.2,0.4-0.5,0.4-0.5,0.8c-0.2,0.3-0.2,0.7-0.4,1.1c-0.2,0.4-0.3,0.6-0.6,0.9c-0.4,0.8-0.8,1.5-0.8,2.2c-0.2,0.6-0.6,1.7,0.2,2.1c1.5,0.4,2.7-0.6,3.7-1.7L98.8,42z M123.3,25.1c0.4-0.1,0.7-0.5,0.9-0.7c0.5-0.4,0.8-1.1,1.2-1.4c0.1-0.1,0.4-0.2,0.5-0.4c0-0.1-0.1-0.2,0-0.2c0.1-0.2,0.5-0.5,0.6-0.7c1-1.4,2.1-2.5,2.8-3.9c0.5-0.7,0.7-1.5,1.1-2.4l0.4-0.2c1.1-2.3,1.8-4.3,3.1-6.4V8.4c0-0.1,0-0.2-0.2-0.2c-1.1,0.5-1.8,1.7-2.4,2.5c-0.3,0.3-0.7,1-0.9,1.2c-0.3,0.3-0.4,0.5-0.6,0.6c-0.6,0.8-1.1,1.8-1.5,2.5C126.5,18.2,124.9,21.9,123.3,25.1z"/>
	<path class="slate" d="M148.1,35.4c-0.1,0.3-0.1,0.6-0.1,0.8c-0.2,0.3-0.4,0.9-0.5,1.2c-0.8,1.9-1.7,4-2.5,6.2c0.5,0.3,0.8-0.4,1.2-0.7c2.4-1.9,5.2-4.5,8.4-6c1.3-0.6,3.8-1.2,5.7-0.7c0.4,0.1,0.9,0.2,1.2,0.3c0.2,0.1,0.4,0.4,0.5,0.6c0.5,0.2,1.4,0.7,1.7,1.1c0.1,0.4,0.4,1.4,0.6,1.9c0.1,0.3,0.1,0.7,0.2,1.1c0.1,0.5,0.2,1.2,0.2,2.1c0,1.7-0.2,3.8-0.2,5.3c0.5-0.9,1.9-2.8,2.8-3.4c0.6-0.5,2.2-2.4,3-2.8c2.2-1.7,3.2-2.8,4.5-3.2c0.6-0.2,2-1.3,2.4-0.2c0.4,0.2,0.2,1.6-0.2,1.4c-1.4,0.6-0.7,0-2.2,1.4c-0.1,0.1-1.3,0.9-1.4,1.1c-0.2,0.1-0.4,0.4-0.8,0.7c-0.6,0.5-0.7,0.7-1.2,1.1c-0.9,0.7-1.7,1.7-2.7,2.7c-0.1,0.1-2.2,2.5-2.4,2.7c-0.2,0.2-1.2,2.1-1.5,2.5c-0.6,0.4-0.7,1.4-1,1.8c-0.2,0.6-0.4,1.5-0.6,2.4c-0.5,2.1-0.9,5-1.5,7.4c-0.1,0.6-0.4,1.4-0.6,2.2c-0.1,0.1,0.1,0.5,0,0.7c-0.1,0.3-0.5,0.9-0.8,1.5c-0.3,1.2,0.2,0.6-0.3,1.8c0,0.1-0.4,0.3-0.4,0.4c-0.1,0.2,0.1,0.6,0,0.8c-0.3,0.6-0.5,1.4-0.8,2.1c-0.3,0.6-0.6,1.4-0.9,2.1c-0.3,0.7-0.2,0.2-0.5,0.8c-0.4,0.8-0.1,0-0.4,0.6c-0.6,1.3-1.6,2.5-2.1,3.8c-0.6,1.3-1.1,2.7-1.5,4.2c-0.6,0.3-1.5,0.6-2.1,1.1c-1.6-0.4-3.4-0.4-4.5-1.1c0-2.9,1-5.7,1.7-8.4c1-3.6,1.1-4.4,2.3-7.7c0.2-0.5,0.3-0.8,0.6-1.4c0.1-0.2,0.1-0.3,0.1-0.4c0.2-0.3,0.2-0.7,0.4-1c0-0.1,0.3-0.4,0.3-0.4c0.6-2.1,1.1-2.7,2.1-4.5c0-0.1,0.1-0.5,0.2-0.6c0.1-0.1,0.2-0.1,0.4-0.2c0.1-0.3,0-0.7,0.2-0.9c0-0.1,0.2-0.1,0.3-0.1c0.1-0.4,0.1-0.5,0.3-0.8c0.4-0.6,0.8-1.1,1.2-1.7c0.2-0.3,0.5-0.5,0.7-0.8c0.1-0.2-0.1-0.5,0-0.6c0.2-0.1,0.5-0.1,0.6-0.4c0.3-0.3,0.3-0.6,0.5-1c0.4-0.5,0.9-1,1.2-1.6c-0.1-1.9,0.2-3.5,0.2-5.2c0-2.2,0-6.9-1.5-7.3c-0.7-0.2-2.3,0.7-3.1,1.4c-0.6,0.4-0.9,0.8-1.6,1.2c-0.1,0.2-0.4,0.1-0.5,0.2c-0.4,0.4-1.4,1.2-1.8,1.7c-1,0.9-2,2.1-3,2.9c-0.1,0.2-0.4,0.1-0.5,0.2c-0.6,0.5-1.8,1.9-2.5,2.5c-0.3,0.1-0.6,0.1-0.9,0.1c-1.1,0.4-1.8,0.9-3.1,0.4c-0.7-0.2-2.4-1.6-2.5-2.2c-0.1-0.5-0.2-1.1-0.4-1.5c-0.4-1.7-0.2-3.1,0.4-4.9c0.1-0.3,0.2-0.6,0.3-1c0.1-0.3,0.1-0.6,0.1-0.9c0.3-0.6,1.2-1.7,1.4-2.4c0.2-0.7,0.5-1.8,0.6-2.4c0.5-1.1,1.2-1.2,1.5-2.5c0.6-0.2,1.4-0.4,2-0.4c1.2,0,2.4,0.4,3.8,0.8C149,34.1,148.3,34.7,148.1,35.4z M155.9,64.7c-0.5,1.5-0.8,2.8-1.3,4c0.2,0.8-0.3,1.7-0.4,2.7c-0.1,0.4,0.1,0.8,0,1.3c-0.1,0.5-0.3,0.7-0.5,1.3c0,0.4-0.1,1.1,0.5,1.3c2.1-4.7,3.7-9.8,4.6-15.9c0-0.2,0-0.2-0.2-0.2c-0.6,1-1.2,2.2-1.8,3.2C156.5,63.2,156.2,64,155.9,64.7z"/>
	<path class="slate" d="M193.4,34.1c0,0.9-0.1,1.7-0.2,2.6c-0.2,0.4-0.5,1.1-0.6,1.5c-0.2,1.2-0.4,2.4-0.8,3.7c-0.2,0.6-0.5,1.2-0.6,1.7c-0.4,1.2-0.8,2.3-1.1,3.5c0,0.4,0,0.7,0,1.1c-0.2,0.7-0.4,1.7,0,2.4c0.3,0.5,1.3,1.7,2.6,1.4c-0.1,0.4-0.1,0.9-0.4,1.2c-0.1,0.1-0.5,0.1-0.5,0.1c-0.2,0.2-0.2,0.4-0.4,0.5c-0.9,0.1-2.4-0.5-3.2-0.9c-1-0.5-1.7-1.4-2.1-1.9c0.1-0.7-0.6-1.4-0.9-2.3c-0.1-0.4-0.1-0.9-0.1-1.5c-0.2-2.2,0-4.4,0.5-6.5c0.2-1.2,0.9-2.4,0.8-3.4c-0.2,0.5-0.6,0.8-0.9,1.1c-0.1,0.2-0.1,0.5-0.4,0.9c-0.1,0.1-0.4,0.1-0.4,0.4c-0.6,0.8-1.1,1.5-1.6,2.2c-0.5,0.5-0.8,1.1-1.4,1.6c-0.2,0.4-0.4,0.8-0.5,1.1c-0.1,0.1-0.4,0.4-0.6,0.7c-0.2,0.4-0.5,0.8-0.7,1.1c-0.3,0.2-0.9,0.4-1.1,0.8c-0.1,0.5-1.2,0-0.9,0.9c-0.5-0.5-1.4-0.4-2.1-0.6c-0.5-0.6-0.8-1.7-0.8-2.8c0-2.4,0.8-5.4,1.2-7.3c0.6-1.7,0.8-3.4,1.4-5.3c0.2-0.1,0.3-0.2,0.5-0.2c-0.1-0.6-0.4-1.2,0.1-1.4c0.7-0.3,3.4,0.5,3.7,0.8c0,0,0.1,0.5,0.1,0.4c0.1,0.4,0,0.9-0.4,1.6c-0.2,1.5-0.4,3.3-0.7,4.8c0.2,0.2,0.3-0.2,0.4-0.4c0.2-0.1,0.4-0.2,0.6-0.4c0,0-0.1-0.2-0.1-0.3c0-0.1,0.3,0,0.3-0.1c0.1-0.1,0.1-0.2,0.1-0.3c0.9-0.9,2.1-2.3,3.5-3.5c0.1-0.1,0.4-0.1,0.6-0.2c0.2-0.4,0.5-0.5,0.8-0.6c0-0.1,0-0.3,0.1-0.4c0.2-0.2,0.5-0.2,0.7-0.3c0.5-0.4,0.6-0.8,1-0.9c0.4-0.2,0.7,0.2,1.1,0.1c0.7,0.1,1.3-0.1,1.9,0c0.3,0.2,0.3,0.6,0.7,0.6C193.3,32.2,193.4,33.2,193.4,34.1z"/>
</g>
</svg>
