<?xml version="1.0" encoding="utf-8"?>
<svg version="1.1" xmlns="http://www.w3.org/2000/svg" xmlns:xlink="http://www.w3.org/1999/xlink" x="0px" y="0px"
	 viewBox="0 0 330 80" enable-background="new 0 0 330 80" xml:space="preserve">
<style type="text/css">
	#sm-icons .pink 	{ fill: #ff5776; }
	#sm-icons .gold 	{ fill: #fcaf35; }
	#sm-icons .blue 	{ fill: #6ad0df; }
</style>
<g id="sm-icons">
	<g>
		<g>
			<path class="pink" d="M24.5,56.3c-2.3,0-3.2,1.8-3.2,1.8v-1.4h-3.2v10.6h3.2c0,0,0-3.9,0-5.6c0-1.5,0.7-2.4,2-2.4c1.2,0,1.8,0.9,1.8,2.4c0,1.5,0,5.6,0,5.6h3.3c0,0,0-3.9,0-6.7C28.3,57.7,26.7,56.3,24.5,56.3z"/>
			<rect x="12.7" y="56.6" class="pink" width="3.3" height="10.6"/>
			<ellipse class="pink" cx="14.3" cy="53.3" rx="1.9" ry="2"/>
		</g>
		<g>
			<polygon class="pink" points="83,62.8 89.2,67 89.2,67 89.2,63.3 85.7,61"/>
			<polygon class="pink" points="97,57.2 90.8,53 90.8,56.7 94.3,59"/>
			<polygon class="pink" points="82.3,58.7 82.3,61.3 84.3,60"/>
			<polygon class="pink" points="90,58.1 87.2,60 90,61.9 92.8,60"/>
			<polygon class="pink" points="89.2,56.7 89.2,53 83,57.2 85.7,59"/>
			<path class="pink" d="M90,47.5c-6.9,0-12.5,5.6-12.5,12.5c0,6.9,5.6,12.5,12.5,12.5c6.9,0,12.5-5.6,12.5-12.5C102.5,53.1,96.9,47.5,90,47.5z M98.9,63.5C98.9,63.5,98.9,63.5,98.9,63.5l-8.5,5.7c-0.3,0.2-0.6,0.2-0.9,0l-8.5-5.7c-0.1-0.1-0.2-0.2-0.2-0.3c-0.1-0.1-0.1-0.3-0.1-0.4v-5.7c0-0.3,0.1-0.5,0.3-0.7c0,0,0,0,0,0l8.5-5.7c0.3-0.2,0.6-0.2,0.9,0l8.5,5.7c0,0,0,0,0,0c0.2,0.1,0.3,0.3,0.3,0.5c0,0,0,0.1,0,0.1v5.7C99.3,63.1,99.1,63.3,98.9,63.5z"/>
			<polygon class="pink" points="90.8,63.3 90.8,67 97,62.8 94.3,61"/>
			<polygon class="pink" points="97.7,61.3 97.7,58.7 95.7,60"/>
		</g>
		<g>
			<path class="pink" d="M58.7,73.5c0-0.5,0-2.1,0-4.1c0-1.4-0.5-2.3-1-2.8c3.3-0.4,6.8-1.6,6.8-7.4c0-1.6-0.6-3-1.5-4c0.2-0.4,0.7-1.9-0.2-4c0,0-1.3-0.4-4.1,1.5c-1.2-0.3-2.5-0.5-3.8-0.5c-1.3,0-2.6,0.2-3.8,0.5c-2.9-1.9-4.1-1.5-4.1-1.5c-0.8,2.1-0.3,3.6-0.1,4c-1,1.1-1.5,2.4-1.5,4c0,5.7,3.5,7,6.8,7.4c-0.4,0.4-0.8,1-1,2c-0.9,0.4-3,1-4.4-1.2c0,0-0.8-1.4-2.3-1.5c0,0-1.5,0-0.1,0.9c0,0,1,0.5,1.7,2.2c0,0,0.9,2.7,5.1,1.8c0,1.3,0,2.4,0,2.8c0,0.4-0.3,0.8-1,0.7c1.5,0.5,3.1,0.8,4.7,0.8c1.6,0,3.2-0.3,4.7-0.8C59,74.4,58.7,73.9,58.7,73.5z"/>
		</g>
		<g>
			<path class="pink" d="M20,5C11.7,5,5,11.7,5,20s6.7,15,15,15s15-6.7,15-15S28.3,5,20,5z M16,27.3h-3.3V16.6H16V27.3zM14.3,15.2c-1.1,0-1.9-0.9-1.9-2s0.9-2,1.9-2c1.1,0,1.9,0.9,1.9,2S15.4,15.2,14.3,15.2z M28.3,27.3h-3.3c0,0,0-4.1,0-5.6s-0.6-2.4-1.8-2.4c-1.3,0-2,0.9-2,2.4c0,1.6,0,5.6,0,5.6h-3.2V16.6h3.2V18c0,0,1-1.8,3.2-1.8c2.3,0,3.9,1.4,3.9,4.2C28.3,23.4,28.3,27.3,28.3,27.3z"/>
		</g>
		<g>
			<path class="pink" d="M90,5c-8.3,0-15,6.7-15,15c0,8.3,6.7,15,15,15c8.3,0,15-6.7,15-15C105,11.7,98.3,5,90,5z M90,32.5c-6.9,0-12.5-5.6-12.5-12.5c0-6.9,5.6-12.5,12.5-12.5c6.9,0,12.5,5.6,12.5,12.5C102.5,26.9,96.9,32.5,90,32.5z"/>
			<path class="pink" d="M99.3,17.1c0-0.2-0.2-0.4-0.3-0.5c0,0,0,0,0,0l-8.5-5.7c-0.3-0.2-0.6-0.2-0.9,0l-8.5,5.7c0,0,0,0,0,0c-0.2,0.1-0.3,0.4-0.3,0.7v5.7c0,0.1,0,0.3,0.1,0.4c0.1,0.1,0.1,0.2,0.2,0.3l8.5,5.7c0.3,0.2,0.6,0.2,0.9,0l8.5-5.7c0,0,0,0,0,0c0.2-0.1,0.3-0.4,0.3-0.7v-5.7C99.3,17.1,99.3,17.1,99.3,17.1C99.3,17.1,99.3,17.1,99.3,17.1zM90.8,13l6.2,4.2L94.3,19l-3.5-2.3V13z M89.2,13v3.7L85.7,19L83,17.2L89.2,13z M82.3,18.7l2,1.3l-2,1.3V18.7z M89.2,27L89.2,27L83,22.8l2.8-1.9l3.5,2.3V27zM90,21.9L87.2,20l2.8-1.9l2.8,1.9L90,21.9zM90.8,27v-3.7l3.5-2.3l2.8,1.9L90.8,27z M97.7,21.3l-2-1.3l2-1.3V21.3z"/>
		</g>
		<g>
			<path class="pink" d="M55,5c-8.3,0-15,6.7-15,15c0,6.6,4.3,12.2,10.3,14.2c0.7,0.1,1-0.3,1-0.7c0-0.4,0-1.5,0-2.8c-4.2,0.9-5.1-1.8-5.1-1.8c-0.7-1.7-1.7-2.2-1.7-2.2c-1.4-0.9,0.1-0.9,0.1-0.9c1.5,0.1,2.3,1.5,2.3,1.5c1.3,2.3,3.5,1.6,4.4,1.2c0.1-1,0.5-1.6,1-2c-3.3-0.4-6.8-1.7-6.8-7.4c0-1.6,0.6-3,1.5-4c-0.2-0.4-0.7-1.9,0.1-4c0,0,1.3-0.4,4.1,1.5c1.2-0.3,2.5-0.5,3.8-0.5c1.3,0,2.6,0.2,3.8,0.5c2.9-1.9,4.1-1.5,4.1-1.5c0.8,2.1,0.3,3.6,0.2,4c1,1.1,1.5,2.4,1.5,4c0,5.8-3.5,7-6.8,7.4c0.5,0.5,1,1.4,1,2.8c0,2,0,3.6,0,4.1c0,0.4,0.3,0.9,1,0.7c6-2,10.3-7.6,10.3-14.2C70,11.7,63.3,5,55,5z"/>
		</g>
	</g>
	<g>
		<g>
			<path class="gold" d="M134.5,56.3c-2.3,0-3.2,1.8-3.2,1.8v-1.4h-3.2v10.6h3.2c0,0,0-3.9,0-5.6c0-1.5,0.7-2.4,2-2.4c1.2,0,1.8,0.9,1.8,2.4c0,1.5,0,5.6,0,5.6h3.3c0,0,0-3.9,0-6.7C138.3,57.7,136.7,56.3,134.5,56.3z"/>
			<rect x="122.7" y="56.6" class="gold" width="3.3" height="10.6"/>
			<ellipse class="gold" cx="124.3" cy="53.3" rx="1.9" ry="2"/>
		</g>
		<g>
			<polygon class="gold" points="193,62.8 199.2,67 199.2,67 199.2,63.3 195.7,61"/>
			<polygon class="gold" points="207,57.2 200.8,53 200.8,56.7 204.3,59"/>
			<polygon class="gold" points="192.3,58.7 192.3,61.3 194.3,60"/>
			<polygon class="gold" points="200,58.1 197.2,60 200,61.9 202.8,60"/>
			<polygon class="gold" points="199.2,56.7 199.2,53 193,57.2 195.7,59"/>
			<path class="gold" d="M200,47.5c-6.9,0-12.5,5.6-12.5,12.5c0,6.9,5.6,12.5,12.5,12.5c6.9,0,12.5-5.6,12.5-12.5C212.5,53.1,206.9,47.5,200,47.5z M208.9,63.5C208.9,63.5,208.9,63.5,208.9,63.5l-8.5,5.7c-0.3,0.2-0.6,0.2-0.9,0l-8.5-5.7c-0.1-0.1-0.2-0.2-0.2-0.3c-0.1-0.1-0.1-0.3-0.1-0.4v-5.7c0-0.3,0.1-0.5,0.3-0.7c0,0,0,0,0,0l8.5-5.7c0.3-0.2,0.6-0.2,0.9,0l8.5,5.7c0,0,0,0,0,0c0.2,0.1,0.3,0.3,0.3,0.5c0,0,0,0.1,0,0.1v5.7C209.3,63.1,209.1,63.3,208.9,63.5z"/>
			<polygon class="gold" points="200.8,63.3 200.8,67 207,62.8 204.3,61"/>
			<polygon class="gold" points="207.7,61.3 207.7,58.7 205.7,60"/>
		</g>
		<g>
			<path class="gold" d="M168.7,73.5c0-0.5,0-2.1,0-4.1c0-1.4-0.5-2.3-1-2.8c3.3-0.4,6.8-1.6,6.8-7.4c0-1.6-0.6-3-1.5-4c0.2-0.4,0.7-1.9-0.2-4c0,0-1.3-0.4-4.1,1.5c-1.2-0.3-2.5-0.5-3.8-0.5c-1.3,0-2.6,0.2-3.8,0.5c-2.9-1.9-4.1-1.5-4.1-1.5c-0.8,2.1-0.3,3.6-0.1,4c-1,1.1-1.5,2.4-1.5,4c0,5.7,3.5,7,6.8,7.4c-0.4,0.4-0.8,1-1,2c-0.9,0.4-3,1-4.4-1.2c0,0-0.8-1.4-2.3-1.5c0,0-1.5,0-0.1,0.9c0,0,1,0.5,1.7,2.2c0,0,0.9,2.7,5.1,1.8c0,1.3,0,2.4,0,2.8c0,0.4-0.3,0.8-1,0.7c1.5,0.5,3.1,0.8,4.7,0.8c1.6,0,3.2-0.3,4.7-0.8C169,74.4,168.7,73.9,168.7,73.5z"/>
		</g>
		<g>
			<path class="gold" d="M130,5c-8.3,0-15,6.7-15,15s6.7,15,15,15c8.3,0,15-6.7,15-15S138.3,5,130,5z M126,27.3h-3.3V16.6h3.3V27.3z M124.3,15.2c-1.1,0-1.9-0.9-1.9-2s0.9-2,1.9-2c1.1,0,1.9,0.9,1.9,2S125.4,15.2,124.3,15.2z M138.3,27.3h-3.3c0,0,0-4.1,0-5.6s-0.6-2.4-1.8-2.4c-1.3,0-2,0.9-2,2.4c0,1.6,0,5.6,0,5.6h-3.2V16.6h3.2V18c0,0,1-1.8,3.2-1.8c2.3,0,3.9,1.4,3.9,4.2C138.3,23.4,138.3,27.3,138.3,27.3z"/>
		</g>
		<g>
			<path class="gold" d="M200,5c-8.3,0-15,6.7-15,15c0,8.3,6.7,15,15,15c8.3,0,15-6.7,15-15C215,11.7,208.3,5,200,5z M200,32.5c-6.9,0-12.5-5.6-12.5-12.5c0-6.9,5.6-12.5,12.5-12.5c6.9,0,12.5,5.6,12.5,12.5C212.5,26.9,206.9,32.5,200,32.5z"/>
			<path class="gold" d="M209.3,17.1c0-0.2-0.2-0.4-0.3-0.5c0,0,0,0,0,0l-8.5-5.7c-0.3-0.2-0.6-0.2-0.9,0l-8.5,5.7c0,0,0,0,0,0c-0.2,0.1-0.3,0.4-0.3,0.7v5.7c0,0.1,0,0.3,0.1,0.4c0.1,0.1,0.1,0.2,0.2,0.3l8.5,5.7c0.3,0.2,0.6,0.2,0.9,0l8.5-5.7c0,0,0,0,0,0c0.2-0.1,0.3-0.4,0.3-0.7v-5.7C209.3,17.1,209.3,17.1,209.3,17.1C209.3,17.1,209.3,17.1,209.3,17.1z M200.8,13l6.2,4.2l-2.8,1.9l-3.5-2.3V13z M199.2,13v3.7l-3.5,2.3l-2.8-1.9L199.2,13z M192.3,18.7l2,1.3l-2,1.3V18.7z M199.2,27L199.2,27l-6.2-4.2l2.8-1.9l3.5,2.3V27z M200,21.9l-2.8-1.9l2.8-1.9l2.8,1.9L200,21.9z M200.8,27v-3.7l3.5-2.3l2.8,1.9L200.8,27z M207.7,21.3l-2-1.3l2-1.3V21.3z"/>
			<path class="gold" d="M165,5c-8.3,0-15,6.7-15,15c0,6.6,4.3,12.2,10.3,14.2c0.7,0.1,1-0.3,1-0.7c0-0.4,0-1.5,0-2.8c-4.2,0.9-5.1-1.8-5.1-1.8c-0.7-1.7-1.7-2.2-1.7-2.2c-1.4-0.9,0.1-0.9,0.1-0.9c1.5,0.1,2.3,1.5,2.3,1.5c1.3,2.3,3.5,1.6,4.4,1.2c0.1-1,0.5-1.6,1-2c-3.3-0.4-6.8-1.7-6.8-7.4c0-1.6,0.6-3,1.5-4c-0.2-0.4-0.7-1.9,0.1-4c0,0,1.3-0.4,4.1,1.5c1.2-0.3,2.5-0.5,3.8-0.5c1.3,0,2.6,0.2,3.8,0.5c2.9-1.9,4.1-1.5,4.1-1.5c0.8,2.1,0.3,3.6,0.2,4c1,1.1,1.5,2.4,1.5,4c0,5.8-3.5,7-6.8,7.4c0.5,0.5,1,1.4,1,2.8c0,2,0,3.6,0,4.1c0,0.4,0.3,0.9,1,0.7c6-2,10.3-7.6,10.3-14.2C180,11.7,173.3,5,165,5z"/>
		</g>
	</g>
	<g>
		<g>
			<path class="blue" d="M244.5,56.3c-2.3,0-3.2,1.8-3.2,1.8v-1.4h-3.2v10.6h3.2c0,0,0-3.9,0-5.6c0-1.5,0.7-2.4,2-2.4c1.2,0,1.8,0.9,1.8,2.4c0,1.5,0,5.6,0,5.6h3.3c0,0,0-3.9,0-6.7C248.3,57.7,246.7,56.3,244.5,56.3z"/>
			<rect x="232.7" y="56.6" class="blue" width="3.3" height="10.6"/>
			<ellipse class="blue" cx="234.3" cy="53.3" rx="1.9" ry="2"/>
		</g>
		<g>
			<polygon class="blue" points="303,62.8 309.2,67 309.2,67 309.2,63.3 305.7,61"/>
			<polygon class="blue" points="317,57.2 310.8,53 310.8,56.7 314.3,59"/>
			<polygon class="blue" points="302.3,58.7 302.3,61.3 304.3,60"/>
			<polygon class="blue" points="310,58.1 307.2,60 310,61.9 312.8,60"/>
			<polygon class="blue" points="309.2,56.7 309.2,53 303,57.2 305.7,59"/>
			<path class="blue" d="M310,47.5c-6.9,0-12.5,5.6-12.5,12.5c0,6.9,5.6,12.5,12.5,12.5c6.9,0,12.5-5.6,12.5-12.5C322.5,53.1,316.9,47.5,310,47.5z M318.9,63.5C318.9,63.5,318.9,63.5,318.9,63.5l-8.5,5.7c-0.3,0.2-0.6,0.2-0.9,0l-8.5-5.7c-0.1-0.1-0.2-0.2-0.2-0.3c-0.1-0.1-0.1-0.3-0.1-0.4v-5.7c0-0.3,0.1-0.5,0.3-0.7c0,0,0,0,0,0l8.5-5.7c0.3-0.2,0.6-0.2,0.9,0l8.5,5.7c0,0,0,0,0,0c0.2,0.1,0.3,0.3,0.3,0.5c0,0,0,0.1,0,0.1v5.7C319.3,63.1,319.1,63.3,318.9,63.5z"/>
			<polygon class="blue" points="310.8,63.3 310.8,67 317,62.8 314.3,61"/>
			<polygon class="blue" points="317.7,61.3 317.7,58.7 315.7,60"/>
		</g>
		<g>
			<path class="blue" d="M278.7,73.5c0-0.5,0-2.1,0-4.1c0-1.4-0.5-2.3-1-2.8c3.3-0.4,6.8-1.6,6.8-7.4c0-1.6-0.6-3-1.5-4c0.2-0.4,0.7-1.9-0.2-4c0,0-1.3-0.4-4.1,1.5c-1.2-0.3-2.5-0.5-3.8-0.5c-1.3,0-2.6,0.2-3.8,0.5c-2.9-1.9-4.1-1.5-4.1-1.5c-0.8,2.1-0.3,3.6-0.1,4c-1,1.1-1.5,2.4-1.5,4c0,5.7,3.5,7,6.8,7.4c-0.4,0.4-0.8,1-1,2c-0.9,0.4-3,1-4.4-1.2c0,0-0.8-1.4-2.3-1.5c0,0-1.5,0-0.1,0.9c0,0,1,0.5,1.7,2.2c0,0,0.9,2.7,5.1,1.8c0,1.3,0,2.4,0,2.8c0,0.4-0.3,0.8-1,0.7c1.5,0.5,3.1,0.8,4.7,0.8c1.6,0,3.2-0.3,4.7-0.8C279,74.4,278.7,73.9,278.7,73.5z"/>
		</g>
		<g>
			<path class="blue" d="M240,5c-8.3,0-15,6.7-15,15s6.7,15,15,15s15-6.7,15-15S248.3,5,240,5z M236,27.3h-3.3V16.6h3.3V27.3zM234.3,15.2c-1.1,0-1.9-0.9-1.9-2s0.9-2,1.9-2c1.1,0,1.9,0.9,1.9,2S235.4,15.2,234.3,15.2z M248.3,27.3h-3.3c0,0,0-4.1,0-5.6s-0.6-2.4-1.8-2.4c-1.3,0-2,0.9-2,2.4c0,1.6,0,5.6,0,5.6h-3.2V16.6h3.2V18c0,0,1-1.8,3.2-1.8c2.3,0,3.9,1.4,3.9,4.2C248.3,23.4,248.3,27.3,248.3,27.3z"/>
		</g>
		<g>
			<path class="blue" d="M310,5c-8.3,0-15,6.7-15,15c0,8.3,6.7,15,15,15c8.3,0,15-6.7,15-15C325,11.7,318.3,5,310,5z M310,32.5c-6.9,0-12.5-5.6-12.5-12.5c0-6.9,5.6-12.5,12.5-12.5c6.9,0,12.5,5.6,12.5,12.5C322.5,26.9,316.9,32.5,310,32.5z"/>
			<path class="blue" d="M319.3,17.1c0-0.2-0.2-0.4-0.3-0.5c0,0,0,0,0,0l-8.5-5.7c-0.3-0.2-0.6-0.2-0.9,0l-8.5,5.7c0,0,0,0,0,0c-0.2,0.1-0.3,0.4-0.3,0.7v5.7c0,0.1,0,0.3,0.1,0.4c0.1,0.1,0.1,0.2,0.2,0.3l8.5,5.7c0.3,0.2,0.6,0.2,0.9,0l8.5-5.7c0,0,0,0,0,0c0.2-0.1,0.3-0.4,0.3-0.7v-5.7C319.3,17.1,319.3,17.1,319.3,17.1C319.3,17.1,319.3,17.1,319.3,17.1z M310.8,13l6.2,4.2l-2.8,1.9l-3.5-2.3V13z M309.2,13v3.7l-3.5,2.3l-2.8-1.9L309.2,13z M302.3,18.7l2,1.3l-2,1.3V18.7z M309.2,27L309.2,27l-6.2-4.2l2.8-1.9l3.5,2.3V27z M310,21.9l-2.8-1.9l2.8-1.9l2.8,1.9L310,21.9z M310.8,27v-3.7l3.5-2.3l2.8,1.9L310.8,27z M317.7,21.3l-2-1.3l2-1.3V21.3z"/>
		</g>
		<g>
			<path class="blue" d="M275,5c-8.3,0-15,6.7-15,15c0,6.6,4.3,12.2,10.3,14.2c0.7,0.1,1-0.3,1-0.7c0-0.4,0-1.5,0-2.8c-4.2,0.9-5.1-1.8-5.1-1.8c-0.7-1.7-1.7-2.2-1.7-2.2c-1.4-0.9,0.1-0.9,0.1-0.9c1.5,0.1,2.3,1.5,2.3,1.5c1.3,2.3,3.5,1.6,4.4,1.2c0.1-1,0.5-1.6,1-2c-3.3-0.4-6.8-1.7-6.8-7.4c0-1.6,0.6-3,1.5-4c-0.2-0.4-0.7-1.9,0.1-4c0,0,1.3-0.4,4.1,1.5c1.2-0.3,2.5-0.5,3.8-0.5c1.3,0,2.6,0.2,3.8,0.5c2.9-1.9,4.1-1.5,4.1-1.5c0.8,2.1,0.3,3.6,0.2,4c1,1.1,1.5,2.4,1.5,4c0,5.8-3.5,7-6.8,7.4c0.5,0.5,1,1.4,1,2.8c0,2,0,3.6,0,4.1c0,0.4,0.3,0.9,1,0.7c6-2,10.3-7.6,10.3-14.2C290,11.7,283.3,5,275,5z"/>
		</g>
	</g>
</g>
</svg>
